<?xml version="1.0" encoding="UTF-8"?>
<svg xmlns="http://www.w3.org/2000/svg" width="350" height="150"><g fill="none" fill-rule="evenodd"><path d="M-1 31h352v88H-1z"/><g fill="#000" fill-rule="nonzero"><path d="M.257 64.388a3.853 3.853 0 0 1 1.509-1.812 9.545 9.545 0 0 1 4.023-.517 22.77 22.77 0 0 1 8.297 5.176A75.346 75.346 0 0 1 22.13 75l1.76-3.624A105.677 105.677 0 0 0 8.806 61.024C5.286 59.988.76 59.47.257 64.388Zm3.52-5.953c4.023-1.294 4.526 1.553 5.28 2.33l3.017 1.811c-4.023-9.576-8.297-4.14-8.297-4.14Z"/><path d="M5.537 63.353c9.554 7.247 1.509 10.612 1.509 10.612 1.471.838 3.32.39 4.274-1.036l.754-1.553c.147-.415.232-.852.252-1.294a103.75 103.75 0 0 1 9.303 12.424 29.275 29.275 0 0 1-.503-4.659c-3.017-3.623-3.772-4.918-5.783-6.988C9.81 63.87 5.286 63.094 5.286 63.094l.251.259Zm39.726-.777a18.908 18.908 0 0 1-.252-5.176 22.982 22.982 0 0 0 1.258-3.882h.251l1.509 1.035a22.169 22.169 0 0 1-1.509-4.4v-.259a10.734 10.734 0 0 0-2.263-4.659c.585 1.566.842 3.242.754 4.918-.251 4.4-6.537 9.576-5.028 17.082A14.785 14.785 0 0 0 45.01 75a40.507 40.507 0 0 1-2.262-8.282c-.26-2.24.18-4.506 1.257-6.47h.503l.754 2.328Zm42.491-30.282c-5.427.887-10.8 2.097-16.091 3.624-5.28 1.811-13.074 5.176-16.594 9.835-3.52 4.659-.503 11.906-1.509 16.565-1.006 4.658-8.046 9.835-8.046 9.835s8.297-2.33 11.063-9.059c2.766-6.73-.503-8.541 2.766-15.788 3.268-7.247 28.411-15.012 28.411-15.012Z"/><path d="M88.006 32.812c-5.547 1.916-9.973 6.282-12.069 11.906l4.023-.777s.251-5.694 8.046-11.13Zm14.08 12.164a65.268 65.268 0 0 0-27.909 1.295C60.35 50.67 62.11 57.918 61.857 61.8c-.251 3.882-3.52 13.459-15.84 12.424 5.077 2.338 11.02 1.318 15.086-2.589 8.046-6.73 2.514-14.753 9.051-18.635 6.537-3.882 11.817-6.988 31.932-8.024Z"/><path d="M66.886 65.941a15.44 15.44 0 0 1 8.8 4.659 12.799 12.799 0 0 0-9.555-2.588l.755-2.07Zm23.885-6.47s-13.074.258-13.325 11.905c-.503-.258-7.543-12.94 13.325-11.905Zm10.309-13.718C87.754 48.6 90.771 59.47 90.771 59.47c-6.788-13.977 10.309-13.718 10.309-13.718ZM64.12 81.729c2.03-5.775 7.131-9.813 13.074-10.353-10.308-2.07-12.823 3.106-13.074 6.989a88.034 88.034 0 0 0-15.84-1.812 44.835 44.835 0 0 1 15.84 5.176ZM9.56 110.718a8.838 8.838 0 0 1 4.526-1.036 11.534 11.534 0 0 0 4.525-1.035l-6.788-1.294c-2.514.259-2.263 3.365-2.263 3.365Zm49.531-7.247a2.115 2.115 0 0 1 .407-1.544c.33-.438.818-.721 1.353-.786 1.73-.046 3.45.307 5.029 1.035l-3.269.777a6.369 6.369 0 0 0-3.52.518Zm18.858 8.282a7.6 7.6 0 0 1 4.274-.777h3.52c-1.006 0-3.017-2.329-5.532-1.811a2.234 2.234 0 0 0-1.696.77 2.374 2.374 0 0 0-.566 1.818Zm11.817-52.8c-16.092-3.882-21.12-1.035-21.12-1.035a5.282 5.282 0 0 0 .503-1.553c.502-.777.502-1.036.502-1.294a46.822 46.822 0 0 1 20.115 3.882ZM27.41 48.34a5.975 5.975 0 0 0-4.022-2.07c-3.018 0-5.783 3.623-8.298 3.623a7.86 7.86 0 0 1-4.274-1.035 5.985 5.985 0 0 0 4.274 2.33c3.52 0 6.035-3.365 8.298-3.365l4.022.517Zm7.292 3.624c.356 1.7.44 3.448.251 5.176-.251 5.694-10.811 13.459-10.811 22.518.204 3.353 1.643 6.5 4.023 8.8a22.61 22.61 0 0 1-1.006-9.835c1.006-6.73 9.303-14.495 9.051-20.965a9.258 9.258 0 0 0-1.508-5.694Z"/><path d="M29.423 88.2a12.768 12.768 0 0 1-.503-7.247c.754-2.33 2.766-4.141 6.789-5.177 0 0-7.04 6.73-1.76 12.424a25.398 25.398 0 0 0-5.029 7.506c-1.509 3.365-4.526 10.87-5.531 12.423a13.688 13.688 0 0 1-6.538 5.695c-4.274.258-9.302 1.035-9.554 4.4a4.5 4.5 0 0 1-.754-3.106c.251-2.33 3.771-4.918 7.543-4.66 3.907.737 7.75-1.571 9.051-5.434A159.173 159.173 0 0 1 29.423 88.2Z"/><path d="M35.457 88.718s-5.783 17.858-15.84 24.847a25.169 25.169 0 0 1 8.046-.26c1.76.777 3.771 2.071 2.011 5.177-1.76 3.106 3.52-2.07 2.766-5.176-.754-3.106-4.526-2.588-4.526-2.588s-1.005-.518-.503-2.07c.503-1.554 4.526-6.73 5.029-7.766l5.783-9.317c2.481.207 4.847-1.112 6.034-3.365 2.263-4.659-2.514-8.8-2.514-8.8s2.011 4.918-.252 7.247a7.655 7.655 0 0 1-6.034 2.07Z"/><path d="M40.234 92.859 43 91.824s1.006 1.035 5.029 1.035h.754a74.605 74.605 0 0 0 18.606-5.953l1.005 1.553c-6.788 2.33-14.583 9.059-24.891 7.765l-4.777-1.036 1.508-2.33ZM69.4 101.4a9.634 9.634 0 0 1-5.029 4.4c-3.017 0-6.788.776-7.04 3.365a2.646 2.646 0 0 1-.502-2.33c0-1.553 2.262-3.623 5.531-3.364a4.92 4.92 0 0 0 3.79-.948 5.206 5.206 0 0 0 1.993-3.452c.754-2.33 0-6.73 1.006-9.577l2.262 1.812v.776c-1.257 3.106-.754 6.73-2.011 9.318Zm4.274-8.541 1.76 1.035c-.47.984-.808 2.029-1.005 3.106l-1.76 5.435c-.503 1.294.251 1.553.251 1.553s2.766.26 3.269 2.07c.502 1.813-2.012 3.883-2.012 3.883s-.251-3.365-1.508-3.882a16.618 16.618 0 0 0-5.532.259c4.274-3.106 5.783-11.906 6.537-13.46Z"/><path d="M90.269 110.976s1.257 2.589.502 3.365c-.754.777-4.525 0-8.548.518-4.023.517-6.034.776-6.286 3.882a4.231 4.231 0 0 1-.754-2.847c1.034-2.853 3.86-4.577 6.788-4.141h4.778c1.005-.518-1.509-5.694-2.012-6.73-3.771-7.764-3.771-10.352-3.771-10.87 0-.518-10.56-2.07-13.075-9.577 8.549 7.248 15.086 7.248 15.086 7.248a147.785 147.785 0 0 0 7.292 19.152Zm2.514-40.635H95.8c4.526-10.094 12.571-20.447 12.571-26.659a10.507 10.507 0 0 0-2.765-6.73l-.503 1.554a27.61 27.61 0 0 0-3.772-6.47l6.789 3.364h-1.257c1.996 2.054 3.086 4.86 3.017 7.765.251 7.247-7.543 15.53-12.069 26.659 10.058 1.294 16.846 7.764 16.846 14.494 0 6.73-5.783 13.458-11.063 13.458-2.302.051-4.57-.578-6.537-1.811-2.514-1.294-5.028-4.4-5.028-10.612a28.67 28.67 0 0 1 2.262-12.165l-6.788.777-2.766.776c2.644 1.453 4.563 3.993 5.28 6.988.486 3.228.14 6.53-1.006 9.577a40.34 40.34 0 0 0 2.766 13.718l1.509 3.882a4.36 4.36 0 0 0 2.011 2.33s3.017.517 3.772 2.329c.375.58.506 1.293.364 1.975a2.589 2.589 0 0 1-1.119 1.648c.755-2.847-1.76-3.364-3.268-3.364H92.53a31.531 31.531 0 0 0-1.508-5.953s-2.514-6.989-3.269-10.353a64.458 64.458 0 0 1-1.76-7.765s7.04-12.424-8.8-17.6h2.263l4.274-1.294 9.052-.518Zm4.023 3.365a35.344 35.344 0 0 0-2.012 12.941c.252 4.4 2.766 10.353 9.555 9.577 2.954-.273 5.542-2.148 6.788-4.918a14.846 14.846 0 0 0 1.257-5.435c-.074-3.24-1.55-6.277-4.023-8.283-3.273-2.689-7.381-4.067-11.565-3.882ZM26.657 42.129s-5.531-1.811-9.051 1.036l1.76 3.106a5.684 5.684 0 0 1 4.255-1.552 5.725 5.725 0 0 1 4.042 2.07l.754 1.293c-2.368 2.436-5.802 3.418-9.051 2.589 1.277 1.965 3.494 3.057 5.783 2.847 4.022 0 8.045-4.4 9.302-2.847 1.258 1.553-.502-5.953 6.789-8.283l1.76 2.07c1.66-1.697 2.49-4.073 2.263-6.47-.094-2.748-1.507-5.27-3.772-6.73a9.83 9.83 0 0 1-.754 5.436c-.762 1.918-2.517 3.223-4.526 3.365l-3.268-.518c-.754-.259-6.034-2.07-6.286 2.588Zm6.034-.258s-1.76 3.105-4.274 1.294c-2.514-1.812 0-1.812 1.509-1.553 1.508.259 1.257.517 2.765.259Zm117.418 6.988h2.514v16.823h6.286v2.07h-8.549l-.251-18.893Zm10.811-1.294h2.263v20.447h-2.263V47.565Zm10.057 23.553c-.754 2.33-1.508 3.364-3.268 3.364H166.2v-2.07h1.257c.754 0 1.006-.26 1.509-1.812l.503-2.33-4.023-14.494h2.514l3.017 11.389 2.766-11.389h2.263l-5.029 17.342Zm19.109-2.847h-2.515l-2.765-11.906-2.766 11.906h-2.514l-3.52-13.977h2.514l2.514 11.647 2.515-11.647h2.765l2.766 11.647 2.514-11.647h2.263l-3.771 13.977Zm10.308-14.236c3.52 0 5.532 2.847 5.532 7.247s-1.76 7.247-5.532 7.247c-3.771 0-5.28-2.847-5.28-7.247s1.76-7.247 5.28-7.247Zm0 12.424c2.263 0 3.017-1.812 3.017-5.435 0-3.624-1.005-5.436-3.017-5.436-2.011 0-3.017 1.812-3.017 5.436 0 3.623.754 5.435 3.017 5.435Zm17.852-.777c0 .777.251 1.812.251 2.589h-2.263V66.2c-.609 1.437-1.997 2.356-3.52 2.33-2.765 0-4.777-2.33-4.777-7.248 0-4.917 1.76-7.247 4.777-7.247 1.437.037 2.76.815 3.52 2.07v-8.54h2.263l-.251 18.117Zm-5.28-9.835c-2.012 0-3.017 1.812-3.017 5.435 0 3.624 1.005 5.436 3.017 5.436 2.011 0 3.017-1.812 3.017-5.436 0-3.623-1.006-5.435-3.017-5.435Zm8.297 1.294c0-1.035-.252-2.07-.252-3.106h2.263v2.33c.573-1.59 2.14-2.557 3.772-2.33v2.33h-.755c-1.76 0-3.017 1.553-3.017 4.659v7.505h-2.263l.252-11.388Zm8.297-2.07a6.396 6.396 0 0 1 3.771-1.036 4.204 4.204 0 0 1 3.52 1.294 4.472 4.472 0 0 1 1.258 3.365v7.247c-.045.786.04 1.573.251 2.33h-2.011v-1.812c-.808 1.334-2.246 2.123-3.772 2.07a3.455 3.455 0 0 1-2.922-.94 3.682 3.682 0 0 1-1.1-2.942c0-2.847 1.76-4.659 6.536-4.659h1.258v-.776a6.366 6.366 0 0 0-.503-2.33c-.503-.776-1.257-.776-2.263-.776a4.466 4.466 0 0 0-3.52 1.553l-.503-2.588Zm6.537 6.211h-1.508c-2.766 0-3.772 1.294-3.772 2.847s.754 2.589 2.263 2.589c1.805 0 3.269-1.507 3.269-3.365V61.54l-.252-.259Zm7.04.518c0 3.365 1.257 4.918 3.772 4.918a5.18 5.18 0 0 0 3.017-1.036v2.07a8.829 8.829 0 0 1-3.772.777c-3.52 0-5.531-2.847-5.531-7.247s1.76-7.247 5.28-7.247c3.52 0 4.777 2.589 4.777 6.73v1.294l-7.543-.259Zm5.532-1.553c0-2.847-1.006-4.4-2.766-4.4s-2.766 1.035-2.766 4.4h5.532Zm10.56 7.765-1.76.517c-2.012 0-3.269-.776-3.269-3.364v-9.06h-2.263v-1.81h2.263v-3.107l2.263-.776v3.623h2.766v1.812h-2.766v8.282c0 1.553.503 2.33 1.508 2.33l1.258-.518v2.07Zm1.76-20.447h2.262v8.54c.54-1.344 1.86-2.18 3.269-2.07 2.514 0 4.023 1.294 4.023 4.66v9.834h-2.263v-9.058c0-2.33-.754-3.106-2.263-3.106-1.508 0-3.017 1.294-3.017 3.882v8.541h-2.263l.252-21.223Zm30.674 20.447-3.269.517c-5.783 0-8.548-4.658-8.548-9.835 0-5.176 3.268-9.835 8.297-9.835a7.117 7.117 0 0 1 3.52.776v2.33a5.663 5.663 0 0 0-3.52-1.036c-3.017 0-5.783 2.589-5.783 7.247 0 4.66 1.76 8.283 6.034 8.283a4.438 4.438 0 0 0 3.269-1.035v2.588Zm7.291 3.106c-.754 2.33-1.508 3.364-3.268 3.364h-1.509v-2.07h1.257c.755 0 1.006-.26 1.509-1.812l.503-2.33-4.275-14.235h2.515l3.017 11.389 2.766-11.389h2.262l-4.777 17.083Zm6.286-13.977c0-1.035-.251-2.07-.251-3.106h2.262v2.07c.535-1.375 1.83-2.278 3.269-2.278 1.44 0 2.734.903 3.269 2.279.57-1.353 1.837-2.255 3.268-2.33 2.514 0 4.023 1.295 4.023 4.66v9.835h-2.263v-9.577c0-1.812-.754-2.588-2.263-2.588-1.508 0-2.514 1.035-2.514 3.623v8.8h-2.263v-9.576c0-1.812-.754-2.588-2.263-2.588-1.508 0-2.514 1.035-2.514 3.623v8.8h-2.263l.503-11.647Zm19.36 0c0-1.035-.251-2.07-.251-3.106h2.262v2.33c.574-1.59 2.14-2.557 3.772-2.33v2.33h-.754c-1.76 0-3.018 1.553-3.018 4.659v7.505h-2.262l.251-11.388Zm17.349 8.024c0 1.035.251 2.07.251 3.106h-2.263V66.2c-.549 1.488-1.977 2.433-3.52 2.33-2.514 0-4.023-1.295-4.023-4.66v-9.835h2.263v9.318c0 2.33.754 3.106 2.263 3.106s3.017-1.294 3.017-3.883v-8.54h2.263v11.129h-.251Zm-193.6 16.823h2.514l3.017 15.27 3.269-15.27h3.017l3.268 15.27 3.269-15.27h2.263l-4.275 19.153h-2.765l-3.52-16.306-3.52 16.306h-2.766l-3.771-19.153Zm23.885 12.683c0 3.364 1.257 4.917 3.772 4.917a6.897 6.897 0 0 0 3.268-1.035v2.07a8.829 8.829 0 0 1-3.771.777c-3.52 0-5.532-2.847-5.532-7.247s1.76-7.247 5.28-7.247c3.52 0 4.778 2.588 4.778 6.73v1.293l-7.795-.258Zm5.532-1.553c0-2.847-1.006-4.4-2.766-4.4s-2.766 1.035-2.766 4.4h5.532Zm5.028-12.683h2.263v20.447h-2.263V80.435Zm5.28 18.118a5.421 5.421 0 0 0 3.269 1.035c1.76 0 2.766-1.035 2.766-1.812 0-.776-.503-1.552-1.76-2.329l-1.509-.776c-2.011-1.036-2.766-1.812-2.766-3.624a4.2 4.2 0 0 1 1.266-3.024 3.956 3.956 0 0 1 3.009-1.117h.251l3.017.518v1.811H192.6c-1.509 0-2.263.777-2.263 1.812 0 1.035.754 1.812 2.263 2.33h.754c1.76.776 2.766 1.811 2.766 3.623 0 1.812-1.257 4.4-4.526 4.4a8.094 8.094 0 0 1-3.771-.776l.251-2.071Zm10.309-18.118h2.263v8.541c.54-1.345 1.858-2.18 3.268-2.07 2.515 0 4.023 1.294 4.023 4.659v9.835h-2.263v-9.059c0-2.33-.754-3.106-2.263-3.106-1.508 0-3.017 1.294-3.017 3.883v8.54h-2.263l.252-21.223Zm32.183 19.67a11.775 11.775 0 0 1-4.777 1.036c-6.035 0-8.549-4.659-8.549-9.835 0-5.177 3.52-9.835 8.297-9.835l4.526.776v2.588a9.84 9.84 0 0 0-4.526-1.294c-3.017 0-5.783 2.588-5.783 7.247 0 4.66 2.012 8.283 6.035 8.283l2.514-.518v-5.694h-3.269v-2.07h5.532v9.317Zm8.8-13.2c3.52 0 5.531 2.848 5.531 7.248s-1.76 7.247-5.531 7.247c-3.772 0-5.532-2.847-5.532-7.247s1.76-7.247 5.532-7.247Zm0 12.424c2.263 0 3.268-1.811 3.268-5.435 0-3.623-1.005-5.435-3.268-5.435s-3.269 1.812-3.269 5.435c0 3.624 1.006 5.177 3.269 5.177v.258Zm6.537-12.423h2.514l3.017 11.647 3.017-11.647h2.515l-4.275 13.718h-2.765l-4.023-13.718Zm14.583 7.765c0 3.364 1.257 4.917 3.771 4.917a6.897 6.897 0 0 0 3.269-1.035v2.07a8.829 8.829 0 0 1-3.772.777c-3.52 0-5.531-2.847-5.531-7.247s1.76-7.247 5.28-7.247c3.52 0 4.777 2.588 4.777 6.73v1.293l-7.794-.258Zm5.531-1.553c0-2.847-1.006-4.4-2.766-4.4s-2.765 1.035-2.765 4.4h5.531Zm4.777-3.106c0-1.036-.251-2.07-.251-3.106h2.263v2.33c.573-1.59 2.14-2.557 3.771-2.33v2.33h-.754c-1.76 0-3.017 1.552-3.017 4.658v6.988h-2.263l.251-10.87Zm7.795 0c0-1.036-.252-2.07-.252-3.106h2.263v2.07c.549-1.488 1.977-2.433 3.52-2.329 2.514 0 4.023 1.294 4.023 4.659v9.576h-2.263v-8.8c0-2.33-.754-3.106-2.263-3.106-1.508 0-3.017 1.295-3.017 3.883v8.541h-2.263l.252-11.388Zm13.074 0c0-1.036-.252-2.07-.252-3.106h2.263v2.07c.535-1.376 1.83-2.278 3.269-2.278 1.44 0 2.734.902 3.268 2.278.572-1.352 1.838-2.255 3.269-2.329 2.514 0 4.023 1.294 4.023 4.659v9.576h-2.263v-9.317c0-1.812-.754-2.589-2.263-2.589-1.508 0-2.514 1.036-2.514 3.624v8.8H298.2v-9.576c0-1.812-.754-2.589-2.263-2.589-1.508 0-2.514 1.036-2.514 3.624v8.8h-2.263l.503-11.647Zm20.868 4.659c0 3.364 1.258 4.917 3.772 4.917a6.897 6.897 0 0 0 3.268-1.035v2.07a8.829 8.829 0 0 1-3.771.777c-3.52 0-5.531-2.847-5.531-7.247s1.76-7.247 5.28-7.247c3.52 0 4.777 2.588 4.777 6.73v1.293l-7.795-.258Zm5.783-1.553c0-2.847-1.005-4.4-2.765-4.4-1.76 0-2.766 1.035-2.766 4.4h5.531Zm4.526-3.106c0-1.036-.251-2.07-.251-3.106h2.262v2.07c.55-1.488 1.977-2.433 3.52-2.329 2.515 0 4.023 1.294 4.023 4.659v9.576h-2.263v-8.8c0-2.33-.754-3.106-2.262-3.106-1.509 0-3.018 1.295-3.018 3.883v8.541h-2.262V90.012h.251Zm19.109 10.612-1.76.517c-2.263 0-3.269-.776-3.269-3.365v-8.8h-2.263v-1.811h2.263v-2.847l2.263-.777v3.624h2.766v1.811h-3.018v8.283c0 1.553.503 2.33 1.509 2.33l1.509-.518v1.811-.258ZM129.743 31h2.514v87.69h-2.514V31Z"/></g></g></svg>